# xmcd CD database file
#
# Track frame offsets:
#	150
#	27380
#	50324
#	68751
#	87257
#	110987
#	131429
#	149554
#	171609
#	201244
#	224518
#	245608
#	263504
#	284303
#	302072
#
# Disc length: 4247 seconds
#
# Revision: 4
# Processed by: cddbd v1.5.2PL0 Copyright (c) Steve Scherf et al.
# Submitted via: CDex 1.51
#
DISCID=ed10950f
DTITLE=John Mayall - Road Dogs
DYEAR=2005
DGENRE=Blues
TTITLE0=Road dogs
TTITLE1=Short wave radio
TTITLE2=So glad
TTITLE3=Forty days
TTITLE4=To heal the pain
TTITLE5=Burned bridges
TTITLE6=Snake eye
TTITLE7=Kona village
TTITLE8=Beyond control
TTITLE9=Chaos in the neighborhood
TTITLE10=You'll survive
TTITLE11=Awestruck and spellbound
TTITLE12=With you
TTITLE13=Brumwell's Beat
TTITLE14=Scrambling
EXTD=YEAR: 2005
EXTT0=
EXTT1=
EXTT2=
EXTT3=
EXTT4=
EXTT5=
EXTT6=
EXTT7=
EXTT8=
EXTT9=
EXTT10=
EXTT11=
EXTT12=
EXTT13=
EXTT14=
PLAYORDER=
